<svg xmlns="http://www.w3.org/2000/svg">
    <defs>
        <symbol id="close" viewBox="0 0 24 24">
            <path d="M13.41 12L17.71 7.71C17.8983 7.5217 18.0041 7.2663 18.0041 7C18.0041 6.7337 17.8983 6.47831 17.71 6.29C17.5217 6.1017 17.2663 5.99591 17 5.99591C16.7337 5.99591 16.4783 6.1017 16.29 6.29L12 10.59L7.71 6.29C7.5217 6.1017 7.2663 5.99591 7 5.99591C6.7337 5.99591 6.4783 6.1017 6.29 6.29C6.1017 6.47831 5.99591 6.7337 5.99591 7C5.99591 7.2663 6.1017 7.5217 6.29 7.71L10.59 12L6.29 16.29C6.19627 16.383 6.12188 16.4936 6.07111 16.6154C6.02034 16.7373 5.9942 16.868 5.9942 17C5.9942 17.132 6.02034 17.2627 6.07111 17.3846C6.12188 17.5064 6.19627 17.617 6.29 17.71C6.38296 17.8037 6.49356 17.8781 6.61542 17.9289C6.73728 17.9797 6.86799 18.0058 7 18.0058C7.13201 18.0058 7.26272 17.9797 7.38458 17.9289C7.50644 17.8781 7.61704 17.8037 7.71 17.71L12 13.41L16.29 17.71C16.383 17.8037 16.4936 17.8781 16.6154 17.9289C16.7373 17.9797 16.868 18.0058 17 18.0058C17.132 18.0058 17.2627 17.9797 17.3846 17.9289C17.5064 17.8781 17.617 17.8037 17.71 17.71C17.8037 17.617 17.8781 17.5064 17.9289 17.3846C17.9797 17.2627 18.0058 17.132 18.0058 17C18.0058 16.868 17.9797 16.7373 17.9289 16.6154C17.8781 16.4936 17.8037 16.383 17.71 16.29L13.41 12Z"/> 
        </symbol> 
    </defs>
    <defs>
        <symbol id="chevron" viewBox="0 0 24 24">
            <path d="M5.51414 9.45842C5.51369 9.22477 5.59506 8.99834 5.74414 8.81842C5.82809 8.71717 5.93119 8.63346 6.04754 8.57211C6.16389 8.51076 6.29119 8.47296 6.42217 8.46089C6.55315 8.44881 6.68522 8.46269 6.81082 8.50174C6.93643 8.54078 7.05309 8.60422 7.15414 8.68842L12.5141 13.1684L17.8841 8.84843C17.9864 8.76536 18.1041 8.70333 18.2305 8.6659C18.3568 8.62846 18.4893 8.61637 18.6203 8.63031C18.7514 8.64425 18.8783 8.68395 18.994 8.74712C19.1096 8.81029 19.2116 8.8957 19.2941 8.99843C19.3852 9.10189 19.4538 9.22306 19.4958 9.35432C19.5378 9.48558 19.5522 9.62411 19.5381 9.7612C19.5241 9.89829 19.4818 10.031 19.414 10.151C19.3462 10.271 19.2543 10.3756 19.1441 10.4584L13.1441 15.2884C12.9652 15.4355 12.7408 15.5159 12.5091 15.5159C12.2775 15.5159 12.0531 15.4355 11.8741 15.2884L5.87414 10.2884C5.75313 10.1881 5.65746 10.0607 5.59491 9.91646C5.53236 9.77225 5.50469 9.61533 5.51414 9.45842Z"/>
        </symbol>
    </defs>
    <symbol id="eye-open" viewBox="0 0 24 24">
        <path d="M21.87 11.5C21.23 10.39 17.71 4.81999 11.73 4.99999C6.2 5.13999 3 9.99999 2.13 11.5C2.04223 11.652 1.99603 11.8245 1.99603 12C1.99603 12.1755 2.04223 12.348 2.13 12.5C2.76 13.59 6.13 19 12.02 19H12.27C17.8 18.86 21.01 14 21.87 12.5C21.9578 12.348 22.004 12.1755 22.004 12C22.004 11.8245 21.9578 11.652 21.87 11.5ZM12.22 17C7.91 17.1 5.1 13.41 4.22 12C5.22 10.39 7.83 7.09999 11.83 6.99999C16.12 6.88999 18.94 10.59 19.83 12C18.8 13.61 16.22 16.9 12.22 17Z"/>
        <path d="M12 8.5C11.3078 8.5 10.6311 8.70527 10.0555 9.08986C9.47993 9.47444 9.03133 10.0211 8.76642 10.6606C8.50152 11.3001 8.4322 12.0039 8.56725 12.6828C8.7023 13.3618 9.03564 13.9854 9.52513 14.4749C10.0146 14.9644 10.6383 15.2977 11.3172 15.4327C11.9961 15.5678 12.6999 15.4985 13.3394 15.2336C13.9789 14.9687 14.5256 14.5201 14.9101 13.9445C15.2947 13.3689 15.5 12.6922 15.5 12C15.5 11.0717 15.1313 10.1815 14.4749 9.52513C13.8185 8.86875 12.9283 8.5 12 8.5ZM12 13.5C11.7033 13.5 11.4133 13.412 11.1666 13.2472C10.92 13.0824 10.7277 12.8481 10.6142 12.574C10.5007 12.2999 10.4709 11.9983 10.5288 11.7074C10.5867 11.4164 10.7296 11.1491 10.9393 10.9393C11.1491 10.7296 11.4164 10.5867 11.7074 10.5288C11.9983 10.4709 12.2999 10.5006 12.574 10.6142C12.8481 10.7277 13.0824 10.92 13.2472 11.1666C13.412 11.4133 13.5 11.7033 13.5 12C13.5 12.3978 13.342 12.7794 13.0607 13.0607C12.7794 13.342 12.3978 13.5 12 13.5Z" />
    </symbol>
    <symbol id="eye-closed" viewBox="0 0 24 24">
        <path d="M4.71 3.29C4.61676 3.19676 4.50607 3.1228 4.38425 3.07234C4.26243 3.02188 4.13186 2.99591 4 2.99591C3.86814 2.99591 3.73757 3.02188 3.61575 3.07234C3.49393 3.1228 3.38324 3.19676 3.29 3.29C3.10169 3.47831 2.99591 3.7337 2.99591 4C2.99591 4.2663 3.10169 4.5217 3.29 4.71L8.92 10.34C8.5638 11.0026 8.43058 11.7624 8.54009 12.5067C8.64959 13.2509 8.99599 13.9401 9.52794 14.4721C10.0599 15.004 10.7491 15.3504 11.4934 15.4599C12.2376 15.5694 12.9974 15.4362 13.66 15.08L19.29 20.71C19.383 20.8037 19.4936 20.8781 19.6154 20.9289C19.7373 20.9797 19.868 21.0058 20 21.0058C20.132 21.0058 20.2627 20.9797 20.3846 20.9289C20.5064 20.8781 20.617 20.8037 20.71 20.71C20.8037 20.617 20.8781 20.5064 20.9289 20.3846C20.9797 20.2627 21.0058 20.132 21.0058 20C21.0058 19.868 20.9797 19.7373 20.9289 19.6154C20.8781 19.4936 20.8037 19.383 20.71 19.29L4.71 3.29ZM12 13.5C11.6022 13.5 11.2206 13.342 10.9393 13.0607C10.658 12.7794 10.5 12.3978 10.5 12V11.93L12.06 13.49L12 13.5Z"/>
        <path d="M12.22 17C7.92 17.1 5.1 13.41 4.22 12C4.84647 11.0007 5.59936 10.0865 6.46 9.27999L5 7.87C3.87133 8.93347 2.90441 10.1564 2.13 11.5C2.04223 11.652 1.99603 11.8245 1.99603 12C1.99603 12.1755 2.04223 12.348 2.13 12.5C2.76 13.59 6.13 19 12.02 19H12.27C13.3775 18.9671 14.4708 18.7404 15.5 18.33L13.92 16.75C13.3644 16.8962 12.7942 16.98 12.22 17Z"/>
        <path d="M21.87 11.5C21.23 10.39 17.7 4.81999 11.73 4.99999C10.6225 5.03285 9.52924 5.25961 8.5 5.66999L10.08 7.24999C10.6356 7.10382 11.2058 7.01997 11.78 6.99999C16.07 6.88999 18.89 10.59 19.78 12C19.1381 13.0023 18.3682 13.9167 17.49 14.72L19 16.13C20.1428 15.0693 21.1234 13.8462 21.91 12.5C21.9918 12.3445 22.0311 12.1702 22.0241 11.9946C22.0171 11.8191 21.9639 11.6485 21.87 11.5Z"/>
    </symbol>
    <symbol id="check-mark" viewBox="6 5 20 22">
        <path d="M5 16.577l2.194-2.195 5.486 5.484L24.804 7.743 27 9.937l-14.32 14.32z"/>
    </symbol>        
    <symbol id="edit" viewBox="0 0 24 24">
        <path d="M19 20H5C4.73478 20 4.48043 20.1054 4.29289 20.2929C4.10536 20.4804 4 20.7348 4 21C4 21.2652 4.10536 21.5196 4.29289 21.7071C4.48043 21.8946 4.73478 22 5 22H19C19.2652 22 19.5196 21.8946 19.7071 21.7071C19.8946 21.5196 20 21.2652 20 21C20 20.7348 19.8946 20.4804 19.7071 20.2929C19.5196 20.1054 19.2652 20 19 20Z"/>
        <path d="M5.00001 18H5.09001L9.26001 17.62C9.7168 17.5745 10.144 17.3732 10.47 17.05L19.47 8.05C19.8193 7.68097 20.0081 7.18851 19.995 6.68054C19.9819 6.17256 19.7679 5.69051 19.4 5.34L16.66 2.6C16.3024 2.2641 15.8338 2.07136 15.3433 2.05845C14.8529 2.04555 14.3748 2.21337 14 2.53L5.00001 11.53C4.67677 11.856 4.47551 12.2832 4.43001 12.74L4.00001 16.91C3.98654 17.0565 4.00554 17.2041 4.05567 17.3424C4.10579 17.4807 4.18581 17.6062 4.29001 17.71C4.38345 17.8027 4.49426 17.876 4.6161 17.9258C4.73794 17.9755 4.8684 18.0008 5.00001 18ZM15.27 4L18 6.73L16 8.68L13.32 6L15.27 4ZM6.37001 12.91L12 7.32L14.7 10.02L9.10001 15.62L6.10001 15.9L6.37001 12.91Z"/>
    </symbol>        
    <symbol id="out" viewBox="0 0 24 24">
        <path d="M7 6C7.26522 6 7.51957 5.89464 7.70711 5.70711C7.89464 5.51957 8 5.26522 8 5C8 4.73478 7.89464 4.48043 7.70711 4.29289C7.51957 4.10536 7.26522 4 7 4H5C4.73478 4 4.48043 4.10536 4.29289 4.29289C4.10536 4.48043 4 4.73478 4 5V19C4 19.2652 4.10536 19.5196 4.29289 19.7071C4.48043 19.8946 4.73478 20 5 20H7C7.26522 20 7.51957 19.8946 7.70711 19.7071C7.89464 19.5196 8 19.2652 8 19C8 18.7348 7.89464 18.4804 7.70711 18.2929C7.51957 18.1054 7.26522 18 7 18H6V6H7Z"/>
        <path d="M20.82 11.42L18 7.42C17.8471 7.20441 17.615 7.05814 17.3545 7.01317C17.0941 6.9682 16.8264 7.02818 16.61 7.18C16.5018 7.25579 16.4098 7.35224 16.3391 7.46381C16.2684 7.57537 16.2206 7.69982 16.1982 7.82999C16.1759 7.96015 16.1796 8.09344 16.2091 8.22217C16.2386 8.3509 16.2933 8.47252 16.37 8.58L18.09 11H10C9.73478 11 9.48043 11.1054 9.29289 11.2929C9.10536 11.4804 9 11.7348 9 12C9 12.2652 9.10536 12.5196 9.29289 12.7071C9.48043 12.8946 9.73478 13 10 13H18L16.2 15.4C16.1212 15.5051 16.0639 15.6246 16.0313 15.7518C15.9987 15.879 15.9915 16.0114 16.01 16.1414C16.0286 16.2714 16.0726 16.3965 16.1395 16.5095C16.2064 16.6225 16.2949 16.7212 16.4 16.8C16.5731 16.9298 16.7836 17 17 17C17.1552 17 17.3084 16.9639 17.4472 16.8944C17.5861 16.825 17.7069 16.7242 17.8 16.6L20.8 12.6C20.9281 12.4309 20.999 12.2254 21.0026 12.0133C21.0062 11.8011 20.9423 11.5934 20.82 11.42Z"/>
    </symbol>
    <symbol id="dropdown" viewBox="0 0 24 24">
        <circle cx="12" cy="12" r="8.5" stroke="white" fill="transparent"/>
        <path d="M12 13C12.5523 13 13 12.5523 13 12C13 11.4477 12.5523 11 12 11C11.4477 11 11 11.4477 11 12C11 12.5523 11.4477 13 12 13Z" fill="white"/>
        <path d="M12 9.5C12.5523 9.5 13 9.05228 13 8.5C13 7.94772 12.5523 7.5 12 7.5C11.4477 7.5 11 7.94772 11 8.5C11 9.05228 11.4477 9.5 12 9.5Z" fill="white"/>
        <path d="M12 16.5C12.5523 16.5 13 16.0523 13 15.5C13 14.9477 12.5523 14.5 12 14.5C11.4477 14.5 11 14.9477 11 15.5C11 16.0523 11.4477 16.5 12 16.5Z" fill="white"/>
    </symbol>
    <symbol id="profile" viewBox="0 0 24 24">
        <path d="M12 11C12.7911 11 13.5645 10.7654 14.2223 10.3259C14.8801 9.88635 15.3928 9.26164 15.6955 8.53074C15.9983 7.79983 16.0775 6.99556 15.9231 6.21964C15.7688 5.44372 15.3878 4.73098 14.8284 4.17157C14.269 3.61216 13.5563 3.2312 12.7804 3.07686C12.0044 2.92252 11.2002 3.00173 10.4693 3.30448C9.73836 3.60723 9.11365 4.11992 8.67412 4.77772C8.2346 5.43552 8 6.20888 8 7C8 8.06087 8.42143 9.07828 9.17157 9.82843C9.92172 10.5786 10.9391 11 12 11ZM12 5C12.3956 5 12.7822 5.1173 13.1111 5.33706C13.44 5.55683 13.6964 5.86918 13.8478 6.23463C13.9991 6.60009 14.0387 7.00222 13.9616 7.39018C13.8844 7.77814 13.6939 8.13451 13.4142 8.41422C13.1345 8.69392 12.7781 8.8844 12.3902 8.96157C12.0022 9.03874 11.6001 8.99914 11.2346 8.84776C10.8692 8.69639 10.5568 8.44004 10.3371 8.11114C10.1173 7.78224 10 7.39556 10 7C10 6.46957 10.2107 5.96086 10.5858 5.58579C10.9609 5.21072 11.4696 5 12 5Z"/>
        <path d="M12 13C10.1435 13 8.36301 13.7375 7.05025 15.0503C5.7375 16.363 5 18.1435 5 20C5 20.2652 5.10536 20.5196 5.29289 20.7071C5.48043 20.8946 5.73478 21 6 21C6.26522 21 6.51957 20.8946 6.70711 20.7071C6.89464 20.5196 7 20.2652 7 20C7 18.6739 7.52678 17.4021 8.46447 16.4645C9.40215 15.5268 10.6739 15 12 15C13.3261 15 14.5979 15.5268 15.5355 16.4645C16.4732 17.4021 17 18.6739 17 20C17 20.2652 17.1054 20.5196 17.2929 20.7071C17.4804 20.8946 17.7348 21 18 21C18.2652 21 18.5196 20.8946 18.7071 20.7071C18.8946 20.5196 19 20.2652 19 20C19 18.1435 18.2625 16.363 16.9497 15.0503C15.637 13.7375 13.8565 13 12 13Z"/> 
    </symbol>
    <symbol id="prev" viewBox="0 0 24 24">
        <path d="M13.83 19C13.6806 19.0005 13.533 18.9675 13.398 18.9035C13.263 18.8395 13.1441 18.746 13.05 18.63L8.22 12.63C8.07292 12.4511 7.99252 12.2266 7.99252 11.995C7.99252 11.7634 8.07292 11.5389 8.22 11.36L13.22 5.36C13.3897 5.15578 13.6337 5.02736 13.8981 5.00298C14.1625 4.9786 14.4258 5.06026 14.63 5.23C14.8342 5.39974 14.9626 5.64365 14.987 5.90808C15.0114 6.1725 14.9297 6.43578 14.76 6.64L10.29 12L14.61 17.36C14.7323 17.5068 14.81 17.6855 14.8338 17.8751C14.8577 18.0646 14.8268 18.257 14.7447 18.4296C14.6627 18.6021 14.5329 18.7475 14.3708 18.8486C14.2087 18.9497 14.021 19.0022 13.83 19Z"/>
    </symbol>
    <symbol id="next" viewBox="0 0 24 24">
            <path d="M10 19C9.76635 19.0005 9.53991 18.9191 9.36 18.77C9.25874 18.6861 9.17504 18.583 9.11369 18.4666C9.05233 18.3503 9.01454 18.223 9.00246 18.092C8.99039 17.961 9.00427 17.8289 9.04331 17.7033C9.08236 17.5777 9.1458 17.4611 9.23 17.36L13.71 12L9.39 6.63C9.30693 6.52771 9.2449 6.41002 9.20747 6.28368C9.17004 6.15734 9.15794 6.02485 9.17188 5.89382C9.18582 5.76279 9.22552 5.63581 9.28869 5.52017C9.35187 5.40454 9.43727 5.30252 9.54 5.22C9.64346 5.12897 9.76463 5.0603 9.89589 5.01831C10.0272 4.97632 10.1657 4.96192 10.3028 4.976C10.4399 4.99009 10.5726 5.03236 10.6925 5.10016C10.8125 5.16796 10.9172 5.25983 11 5.37L15.83 11.37C15.9771 11.5489 16.0575 11.7734 16.0575 12.005C16.0575 12.2366 15.9771 12.4611 15.83 12.64L10.83 18.64C10.7297 18.761 10.6022 18.8567 10.458 18.9192C10.3138 18.9818 10.1569 19.0095 10 19Z"/>
    </symbol>
    <symbol id="bin" viewBox="0 0 24 24">
        <path d="M21 6H16V4.33C15.9765 3.68982 15.7002 3.08506 15.2316 2.64829C14.7629 2.21153 14.1402 1.97839 13.5 2H10.5C9.85975 1.97839 9.23706 2.21153 8.76843 2.64829C8.2998 3.08506 8.02346 3.68982 8 4.33V6H3C2.73478 6 2.48043 6.10536 2.29289 6.29289C2.10536 6.48043 2 6.73479 2 7C2 7.26522 2.10536 7.51957 2.29289 7.70711C2.48043 7.89464 2.73478 8 3 8H4V19C4 19.7957 4.31607 20.5587 4.87868 21.1213C5.44129 21.6839 6.20435 22 7 22H17C17.7956 22 18.5587 21.6839 19.1213 21.1213C19.6839 20.5587 20 19.7957 20 19V8H21C21.2652 8 21.5196 7.89464 21.7071 7.70711C21.8946 7.51957 22 7.26522 22 7C22 6.73479 21.8946 6.48043 21.7071 6.29289C21.5196 6.10536 21.2652 6 21 6ZM10 4.33C10 4.17 10.21 4 10.5 4H13.5C13.79 4 14 4.17 14 4.33V6H10V4.33ZM18 19C18 19.2652 17.8946 19.5196 17.7071 19.7071C17.5196 19.8946 17.2652 20 17 20H7C6.73478 20 6.48043 19.8946 6.29289 19.7071C6.10536 19.5196 6 19.2652 6 19V8H18V19Z" />
    </symbol>
    <symbol id="picture" viewBox="0 0 24 24">
        <path d="M18 3H6C5.20435 3 4.44129 3.31607 3.87868 3.87868C3.31607 4.44129 3 5.20435 3 6V18C3 18.7956 3.31607 19.5587 3.87868 20.1213C4.44129 20.6839 5.20435 21 6 21H18C18.7956 21 19.5587 20.6839 20.1213 20.1213C20.6839 19.5587 21 18.7956 21 18V6C21 5.20435 20.6839 4.44129 20.1213 3.87868C19.5587 3.31607 18.7956 3 18 3ZM6 5H18C18.2652 5 18.5196 5.10536 18.7071 5.29289C18.8946 5.48043 19 5.73478 19 6V14.36L15.8 11.63C15.3042 11.222 14.6821 10.999 14.04 10.999C13.3979 10.999 12.7758 11.222 12.28 11.63L5 17.7V6C5 5.73478 5.10536 5.48043 5.29289 5.29289C5.48043 5.10536 5.73478 5 6 5ZM18 19H6.56L13.56 13.16C13.6945 13.0602 13.8575 13.0062 14.025 13.0062C14.1925 13.0062 14.3555 13.0602 14.49 13.16L19 17V18C19 18.2652 18.8946 18.5196 18.7071 18.7071C18.5196 18.8946 18.2652 19 18 19Z"/>
        <path d="M8 10C8.82843 10 9.5 9.32843 9.5 8.5C9.5 7.67157 8.82843 7 8 7C7.17157 7 6.5 7.67157 6.5 8.5C6.5 9.32843 7.17157 10 8 10Z" />
    </symbol>
    <symbol id="play" viewBox="0 0 24 24"> 
        <path d="M12 2C10.0222 2 8.08879 2.58649 6.4443 3.6853C4.79981 4.78412 3.51809 6.3459 2.76121 8.17317C2.00433 10.0004 1.8063 12.0111 2.19215 13.9509C2.578 15.8907 3.53041 17.6725 4.92894 19.0711C6.32746 20.4696 8.10929 21.422 10.0491 21.8079C11.9889 22.1937 13.9996 21.9957 15.8268 21.2388C17.6541 20.4819 19.2159 19.2002 20.3147 17.5557C21.4135 15.9112 22 13.9778 22 12C22 10.6868 21.7413 9.38642 21.2388 8.17317C20.7363 6.95991 19.9997 5.85752 19.0711 4.92893C18.1425 4.00035 17.0401 3.26375 15.8268 2.7612C14.6136 2.25866 13.3132 2 12 2ZM12 20C10.4178 20 8.87104 19.5308 7.55544 18.6518C6.23985 17.7727 5.21447 16.5233 4.60897 15.0615C4.00347 13.5997 3.84504 11.9911 4.15372 10.4393C4.4624 8.88743 5.22433 7.46197 6.34315 6.34315C7.46197 5.22433 8.88743 4.4624 10.4393 4.15372C11.9911 3.84504 13.5997 4.00346 15.0615 4.60896C16.5233 5.21447 17.7727 6.23984 18.6518 7.55544C19.5308 8.87103 20 10.4177 20 12C20 14.1217 19.1572 16.1566 17.6569 17.6569C16.1566 19.1571 14.1217 20 12 20Z"/>
        <path d="M12.34 7.45001C12.095 7.2242 11.789 7.07538 11.4601 7.02204C11.1312 6.96871 10.7938 7.0132 10.49 7.15001C10.1951 7.26932 9.94239 7.47385 9.76426 7.73748C9.58614 8.0011 9.49065 8.31185 9.49001 8.63001V15.37C9.49065 15.6882 9.58614 15.9989 9.76426 16.2625C9.94239 16.5262 10.1951 16.7307 10.49 16.85C10.7068 16.9483 10.942 16.9995 11.18 17C11.6089 16.9981 12.022 16.8379 12.34 16.55L16 13.18C16.1637 13.0301 16.2944 12.8478 16.3838 12.6446C16.4733 12.4415 16.5195 12.222 16.5195 12C16.5195 11.778 16.4733 11.5585 16.3838 11.3554C16.2944 11.1522 16.1637 10.9699 16 10.82L12.34 7.45001ZM11.5 14.6V9.40001L14.31 12L11.5 14.6Z"/>
    </symbol>
    <symbol id="burger" viewBox="0 0 24 24"> 
        <path d="M20.05 11H3.95C3.42533 11 3 11.4253 3 11.95V12.05C3 12.5747 3.42533 13 3.95 13H20.05C20.5747 13 21 12.5747 21 12.05V11.95C21 11.4253 20.5747 11 20.05 11Z" />
        <path d="M20.05 16H3.95C3.42533 16 3 16.4253 3 16.95V17.05C3 17.5747 3.42533 18 3.95 18H20.05C20.5747 18 21 17.5747 21 17.05V16.95C21 16.4253 20.5747 16 20.05 16Z" />
        <path d="M20.05 6H3.95C3.42533 6 3 6.42533 3 6.95V7.05C3 7.57467 3.42533 8 3.95 8H20.05C20.5747 8 21 7.57467 21 7.05V6.95C21 6.42533 20.5747 6 20.05 6Z"/>    
    </symbol>
  </svg>